#!OML:ASF H:\Terrain\Patient Classification 1\Animal2\Wednesday\Animal2.ASF
:FULLY-SPECIFIED
:DEGREES
724
root 12.6944 17.9034 -22.4585 8.70227 -23.5083 0.319895
lowerback 6.69418 -2.94499 1.33521
upperback -3.82781 -3.82942 -0.0873722
thorax -7.87516 -1.9511 -0.323118
lowerneck 10.3001 7.01416 15.8331
upperneck -25.8815 7.10365 -24.7063
head -7.74657 4.45727 -12.2561
rclavicle -4.48446e-014 -9.83984e-015
rhumerus -34.6829 -18.5899 -54.322
rradius 54.2753
rwrist 10.6014
rhand -12.0946 12.8843
rfingers 7.12502
rthumb 13.9658 -16.6266
lclavicle -4.48446e-014 -9.83984e-015
lhumerus -37.2473 -6.39013 64.9572
lradius 48.2617
lwrist 19.6958
lhand -23.6693 27.6022
lfingers 7.12502
lthumb 2.79677 57.5636
rfemur -13.541 -4.4116 21.7287
rtibia 24.8311
rfoot -19.6012 7.60565
rtoes 28.6793
lfemur -11.4674 -1.72898 -19.7303
ltibia 20.9747
lfoot -16.5234 8.00003
ltoes -25.6196
725
root 12.6954 17.9141 -22.4508 8.86324 -23.6684 0.306372
lowerback 6.27757 -2.90108 1.29792
upperback -3.81201 -3.78249 -0.119033
thorax -7.61458 -1.92856 -0.365445
lowerneck 9.86401 6.88192 16.3971
upperneck -25.1751 6.98866 -25.0674
head -7.40573 4.37215 -12.3919
rclavicle 2.74758e-014 4.96962e-016
rhumerus -33.9106 -18.7232 -52.8675
rradius 53.9072
rwrist 10.7481
rhand -12.1982 13.109
rfingers 7.12502
rthumb 13.866 -16.4087
lclavicle 2.74758e-014 4.96962e-016
lhumerus -36.4766 -6.16492 62.664
lradius 47.7788
lwrist 19.122
lhand -25.1232 27.4573
lfingers 7.12502
lthumb 1.39257 57.4325
rfemur -13.7772 -4.43218 21.7274
rtibia 24.9584
rfoot -19.5105 7.75293
rtoes 29.4643
lfemur -11.5146 -1.89528 -19.7129
ltibia 20.8597
lfoot -16.4648 7.8727
ltoes -23.87
726
root 12.696 17.9205 -22.4491 9.10459 -23.7889 0.353203
lowerback 5.91184 -2.83105 1.16901
upperback -3.96387 -3.70726 -0.123559
thorax -7.55482 -1.88748 -0.322884
lowerneck 10.7599 6.80863 15.6753
upperneck -25.7564 6.94248 -24.2878
head -7.87472 4.37263 -12.0871
rclavicle -6.97921e-014 -8.74653e-015
rhumerus -33.4905 -18.3536 -51.5109
rradius 53.7677
rwrist 11.2157
rhand -12.9566 12.7725
rfingers 7.12502
rthumb 13.135 -16.7938
lclavicle -6.97921e-014 -8.74653e-015
lhumerus -35.5508 -5.94961 60.525
lradius 46.7838
lwrist 18.363
lhand -27.2192 25.6391
lfingers 7.12502
lthumb -0.631837 55.6179
rfemur -14.1602 -4.40313 21.7065
rtibia 25.1295
rfoot -19.3375 7.83607
rtoes 30.0583
lfemur -11.6931 -2.06251 -19.7355
ltibia 20.6754
lfoot -16.205 7.94127
ltoes -23.4746
727
root 12.6944 17.9301 -22.4471 9.34497 -23.9 0.41192
lowerback 5.58881 -2.7642 0.948197
upperback -4.10187 -3.63815 -0.0584252
thorax -7.49449 -1.84223 -0.153302
lowerneck 10.8453 6.74647 15.5828
upperneck -25.587 6.87047 -24.2611
head -7.86089 4.34858 -12.0481
rclavicle -2.07606e-014 -3.57812e-015
rhumerus -33.1388 -18.0552 -50.2649
rradius 53.69
rwrist 12.0749
rhand -13.6441 12.6431
rfingers 7.12502
rthumb 12.4723 -16.9648
lclavicle -2.07606e-014 -3.57812e-015
lhumerus -34.6351 -5.93884 58.7609
lradius 45.7351
lwrist 17.5931
lhand -28.6644 24.2468
lfingers 7.12502
lthumb -2.02763 54.2169
rfemur -14.5876 -4.43392 21.6912
rtibia 25.3084
rfoot -19.2415 7.82267
rtoes 30.1832
lfemur -11.8382 -2.34471 -19.7804
ltibia 20.4828
lfoot -15.9378 8.39092
ltoes -24.4833
728
root 12.6918 17.9367 -22.4458 9.52952 -23.9884 0.346655
lowerback 5.41431 -2.75174 0.80494
upperback -4.24802 -3.62876 0.0657932
thorax -7.5317 -1.82779 0.0506092
lowerneck 10.4405 6.68638 16.1005
upperneck -24.8674 6.81702 -24.8148
head -7.49733 4.31846 -12.2521
rclavicle -5.19822e-014 -8.34896e-015
rhumerus -32.8317 -17.617 -49.3627
rradius 53.7404
rwrist 12.7054
rhand -13.8763 12.7813
rfingers 7.12502
rthumb 12.2484 -16.84
lclavicle -5.19822e-014 -8.34896e-015
lhumerus -34.1172 -6.10809 57.2541
lradius 44.8868
lwrist 16.9883
lhand -28.9566 24.7464
lfingers 7.12502
lthumb -2.30976 54.7136
rfemur -14.8807 -4.47272 21.7979
rtibia 25.4823
rfoot -19.1595 7.80885
rtoes 30.5742
lfemur -11.8524 -2.77874 -19.7034
ltibia 20.2805
lfoot -15.7746 8.98079
ltoes -25.1948
729
root 12.6905 17.94 -22.4483 9.58316 -24.0944 0.396649
lowerback 5.41195 -2.71561 0.485044
upperback -4.42065 -3.60063 0.20594
thorax -7.68513 -1.79295 0.377357
lowerneck 11.8234 6.88545 14.6066
upperneck -26.225 7.04971 -23.5563
head -8.32279 4.48738 -11.7417
rclavicle 5.63896e-014 6.36111e-015
rhumerus -32.731 -16.6522 -48.8238
rradius 54.201
rwrist 12.6775
rhand -14.4573 11.8804
rfingers 7.12502
rthumb 11.6881 -17.7736
lclavicle 5.63896e-014 6.36111e-015
lhumerus -33.9768 -6.31369 56.0905
lradius 44.4228
lwrist 16.6907
lhand -29.4307 25.2539
lfingers 7.12502
lthumb -2.7677 55.2157
rfemur -15.0718 -4.44422 21.7791
rtibia 25.6223
rfoot -18.9628 7.84
rtoes 31.4336
lfemur -11.8321 -3.02004 -19.7513
ltibia 20.107
lfoot -15.7306 9.28279
ltoes -24.5396
730
root 12.6898 17.9454 -22.4497 9.56817 -24.184 0.49555
lowerback 5.49634 -2.66744 0.108222
upperback -4.55693 -3.56246 0.326225
thorax -7.84895 -1.7491 0.717433
lowerneck 10.6243 6.82369 15.6694
upperneck -24.545 7.00569 -24.7416
head -7.41269 4.45199 -12.1195
rclavicle 7.46996e-016 -9.93923e-017
rhumerus -32.8254 -15.7388 -48.5959
rradius 54.7772
rwrist 12.6123
rhand -14.978 11.1479
rfingers 7.12502
rthumb 11.1859 -18.5339
lclavicle 7.46996e-016 -9.93923e-017
lhumerus -33.8925 -6.46522 55.2618
lradius 44.4281
lwrist 16.7853
lhand -30.6468 26.0045
lfingers 7.12502
lthumb -3.94204 55.9478
rfemur -15.1945 -4.46258 21.7033
rtibia 25.7294
rfoot -18.7362 7.95583
rtoes 32.1509
lfemur -11.7777 -3.09954 -19.8638
ltibia 19.9738
lfoot -15.7408 9.34781
ltoes -23.1112
731
root 12.688 17.9482 -22.447 9.56924 -24.2667 0.473955
lowerback 5.58651 -2.6551 -0.0246139
upperback -4.69283 -3.55826 0.345702
thorax -8.03853 -1.73757 0.820972
lowerneck 10.6855 6.95234 15.4913
upperneck -24.251 7.23711 -24.5709
head -7.29723 4.56908 -11.9895
rclavicle 1.78891e-014 1.52816e-014
rhumerus -33.0867 -15.1224 -48.8913
rradius 55.1657
rwrist 12.6642
rhand -14.7845 11.6858
rfingers 7.12502
rthumb 11.3726 -17.9858
lclavicle 1.78891e-014 1.52816e-014
lhumerus -33.81 -6.39785 54.491
lradius 44.6146
lwrist 16.6615
lhand -31.342 27.3692
lfingers 7.12502
lthumb -4.61341 57.299
rfemur -15.2444 -4.59103 21.7306
rtibia 25.824
rfoot -18.5952 8.21275
rtoes 32.6503
lfemur -11.6542 -3.40033 -19.8595
ltibia 19.8493
lfoot -15.7686 9.56294
ltoes -21.8235
732
root 12.6859 17.9498 -22.4419 9.51146 -24.3597 0.422328
lowerback 5.66159 -2.66582 -0.0483555
upperback -4.80222 -3.57906 0.30954
thorax -8.20139 -1.74624 0.806904
lowerneck 10.4009 7.12381 15.5278
upperneck -23.5302 7.57825 -24.4479
head -6.9409 4.7122 -11.8454
rclavicle 1.06011e-013 -3.18055e-015
rhumerus -33.3511 -14.6504 -49.6522
rradius 55.3329
rwrist 12.4243
rhand -14.3873 12.433
rfingers 7.12502
rthumb 11.7556 -17.2171
lclavicle 1.06011e-013 -3.18055e-015
lhumerus -33.9808 -6.50284 54.0328
lradius 45.0843
lwrist 16.1996
lhand -31.2245 27.7251
lfingers 7.12502
lthumb -4.49994 57.6573
rfemur -15.1894 -4.60662 21.7734
rtibia 25.8965
rfoot -18.6031 8.24936
rtoes 32.5856
lfemur -11.4642 -3.75223 -19.8343
ltibia 19.7503
lfoot -15.7736 10.0078
ltoes -21.4245
733
root 12.6823 17.9507 -22.4336 9.46694 -24.4834 0.286371
lowerback 5.65408 -2.67587 -0.00883474
upperback -4.89231 -3.58898 0.325763
thorax -8.29584 -1.75234 0.806086
lowerneck 10.5347 7.32361 15.3569
upperneck -23.3218 7.93946 -24.1301
head -6.85013 4.8806 -11.676
rclavicle 1.04562e-013 6.95746e-016
rhumerus -33.6754 -14.0429 -50.7003
rradius 55.4892
rwrist 11.9031
rhand -13.9708 12.8933
rfingers 7.12502
rthumb 12.1573 -16.7334
lclavicle 1.04562e-013 6.95746e-016
lhumerus -34.2876 -6.92859 54.1826
lradius 45.6916
lwrist 16.1669
lhand -30.9055 27.2232
lfingers 7.12502
lthumb -4.19188 57.1617
rfemur -15.0885 -4.62363 21.8964
rtibia 25.9287
rfoot -18.5546 8.22694
rtoes 32.0036
lfemur -11.2748 -3.84529 -19.7499
ltibia 19.699
lfoot -15.7543 10.634
ltoes -22.6428
734
root 12.6784 17.9507 -22.423 9.45312 -24.5685 0.17419
lowerback 5.53769 -2.6849 0.01306
upperback -4.93746 -3.59744 0.358813
thorax -8.27562 -1.75735 0.82493
lowerneck 11.1475 7.47664 14.7857
upperneck -23.8273 8.16375 -23.5597
head -7.15028 5.00732 -11.4541
rclavicle 3.14421e-014 -1.78906e-015
rhumerus -34.1722 -13.1405 -52.0594
rradius 55.8263
rwrist 11.3872
rhand -13.6825 12.6316
rfingers 7.12502
rthumb 12.4352 -16.9785
lclavicle 3.14421e-014 -1.78906e-015
lhumerus -34.4194 -7.34896 54.8458
lradius 46.1816
lwrist 16.7271
lhand -30.5198 27.5408
lfingers 7.12502
lthumb -3.81947 57.4863
rfemur -15.0168 -4.80327 21.9951
rtibia 25.9195
rfoot -18.3818 8.46381
rtoes 31.9187
lfemur -11.1491 -3.72868 -19.7013
ltibia 19.6877
lfoot -15.7783 11.1097
ltoes -24.6884
735
root 12.6762 17.9525 -22.4124 9.43643 -24.5247 0.0489683
lowerback 5.42483 -2.71981 0.0701633
upperback -4.95493 -3.63605 0.405509
thorax -8.22859 -1.77888 0.841396
lowerneck 11.5274 7.51369 14.4283
upperneck -24.0774 8.21119 -23.271
head -7.33442 5.04648 -11.3375
rclavicle 4.24467e-014 4.96962e-016
rhumerus -34.6776 -12.4079 -53.6098
rradius 55.8931
rwrist 11.4426
rhand -13.8253 12.0055
rfingers 7.12502
rthumb 12.2975 -17.6129
lclavicle 4.24467e-014 4.96962e-016
lhumerus -34.6551 -8.04433 55.9971
lradius 46.7141
lwrist 17.4943
lhand -29.8129 27.6864
lfingers 7.12502
lthumb -3.13679 57.6431
rfemur -14.9092 -4.94076 22.1052
rtibia 25.8868
rfoot -18.3219 8.60115
rtoes 31.8359
lfemur -11.067 -3.5829 -19.6293
ltibia 19.7123
lfoot -15.8052 11.3626
ltoes -26.3746
736
root 12.6732 17.9507 -22.4033 9.43774 -24.5099 -0.209925
lowerback 5.36511 -2.69329 0.166708
upperback -4.99018 -3.58429 0.510806
thorax -8.2313 -1.7559 0.88982
lowerneck 11.3837 7.48301 14.5418
upperneck -23.5578 8.21369 -23.3988
head -7.12587 5.04781 -11.3416
rclavicle -4.14047e-014 2.98177e-015
rhumerus -35.0299 -12.2258 -55.0974
rradius 55.2408
rwrist 11.8747
rhand -13.6989 12.2468
rfingers 7.12502
rthumb 12.4194 -17.3642
lclavicle -4.14047e-014 2.98177e-015
lhumerus -35.1083 -9.09604 57.6828
lradius 47.3038
lwrist 18.0159
lhand -28.95 26.4
lfingers 7.12502
lthumb -2.30338 56.3673
rfemur -14.7284 -4.95419 22.3364
rtibia 25.844
rfoot -18.3172 8.61733
rtoes 31.3505
lfemur -10.9486 -3.59683 -19.4167
ltibia 19.7612
lfoot -16.1244 11.5226
ltoes -25.6014
737
root 12.6708 17.9433 -22.3951 9.31041 -24.5102 -0.326448
lowerback 5.39632 -2.59292 0.0788265
upperback -4.98579 -3.45264 0.570503
thorax -8.2367 -1.68399 0.986596
lowerneck 10.9455 7.37163 14.9843
upperneck -22.8042 8.11693 -23.7861
head -6.77404 4.98605 -11.4582
rclavicle 9.947e-016 2.28602e-015
rhumerus -35.4075 -12.2176 -56.5994
rradius 54.346
rwrist 11.9849
rhand -12.905 12.9888
rfingers 7.12502
rthumb 13.1848 -16.5743
lclavicle 9.947e-016 2.28602e-015
lhumerus -35.5052 -10.1379 59.729
lradius 47.8586
lwrist 18.1343
lhand -28.2459 25.3685
lfingers 7.12502
lthumb -1.62343 55.3421
rfemur -14.4612 -4.93285 22.4112
rtibia 25.7956
rfoot -18.313 8.64855
rtoes 31.1103
lfemur -10.7367 -3.76755 -19.3414
ltibia 19.8257
lfoot -16.6131 11.6029
ltoes -23.9088
738
root 12.6707 17.9359 -22.3836 9.10183 -24.4479 -0.263004
lowerback 5.45851 -2.53443 -0.0573616
upperback -4.98697 -3.38779 0.549602
thorax -8.2683 -1.64435 1.03573
lowerneck 10.3726 7.16271 15.7421
upperneck -22.0355 7.8751 -24.4687
head -6.3913 4.84615 -11.7385
rclavicle 7.45295e-014 1.6201e-014
rhumerus -35.9024 -11.9401 -58.259
rradius 53.6041
rwrist 11.7394
rhand -11.9195 13.3893
rfingers 7.12502
rthumb 14.1346 -16.1099
lclavicle 7.45295e-014 1.6201e-014
lhumerus -35.9849 -11.007 61.9157
lradius 48.4083
lwrist 18.3375
lhand -27.192 25.6636
lfingers 7.12502
lthumb -0.605568 55.6425
rfemur -14.1948 -5.13353 22.292
rtibia 25.7601
rfoot -18.3436 8.87192
rtoes 31.079
lfemur -10.5305 -4.00417 -19.442
ltibia 19.8898
lfoot -16.6337 11.9238
ltoes -24.8816
